<svg version="1.2" xmlns="http://www.w3.org/2000/svg" viewBox="0 0 400 400" width="400" height="400"><style>.a{fill:#fff}</style><path  d=""/><path fill-rule="evenodd" class="a" d="m50 0h300c27.6 0 50 22.4 50 50v300c0 27.6-22.4 50-50 50h-300c-27.6 0-50-22.4-50-50v-300c0-27.6 22.4-50 50-50z"/><path  d="m198.8 342q-22.8 0-43.6-5.6-20.4-6-36.4-17.6-16-11.6-25.6-28.8-9.2-17.2-10-40 0-3.6 2.4-6 2.4-2.8 6.4-2.8h54q5.6 0 8.4 2.8 3.2 2.8 5.2 8.4 2.4 11.2 7.6 18.4 5.6 6.8 14 10.4 8.8 3.2 19.6 3.2 20 0 30.8-12.8 10.8-13.2 10.8-38.4v-115.6h-129.6q-4 0-7.2-2.8-2.8-2.8-2.8-7.2v-39.6q0-4.4 2.8-7.2 3.2-2.8 7.2-2.8h193.6q4.4 0 7.2 2.8 3.2 2.8 3.2 7.2v167.2q0 34.8-15.2 58.8-14.8 23.6-41.6 36-26.4 12-61.2 12z"/></svg>