<svg id="Layer_1" data-name="Layer 1" xmlns="http://www.w3.org/2000/svg" viewBox="0 0 173.64 103.28"><defs><style>.cls-1{fill:none;}.cls-2{fill:#87c557;}.cls-2,.cls-3{fill-rule:evenodd;}.cls-3,.cls-4{fill:#fff;}</style></defs><rect class="cls-1" x="-60.11" y="-48.82" width="294.89" height="200.86"/><path class="cls-2" d="M137.81,24.37a16.53,16.53,0,0,0-5-12.08,16.31,16.31,0,0,0-12-5,16.51,16.51,0,0,0-12.08,5,16.49,16.49,0,0,0-5,12.08,17.07,17.07,0,0,0,17.08,17.09,16.51,16.51,0,0,0,12.08-5,16.86,16.86,0,0,0,4.9-12.09Zm7.39,0A23.48,23.48,0,0,1,138,41.66a23.24,23.24,0,0,1-17.18,7.19,23.48,23.48,0,0,1-17.29-7.19,23.91,23.91,0,0,1-7.19-17.29,23.45,23.45,0,0,1,7.19-17.18A23.52,23.52,0,0,1,120.83,0,23.1,23.1,0,0,1,138,7.19a23.24,23.24,0,0,1,7.19,17.18Z"/><path class="cls-3" d="M47.29,48.23c0,.41-.21.52-.63.52H40.73c-.42,0-.63-.21-.63-.52v-13a6,6,0,0,0-2-4.59,6.38,6.38,0,0,0-4.58-2,5.87,5.87,0,0,0-4.58,2,6.31,6.31,0,0,0-1.88,4.59v13c0,.41-.21.52-.62.52H20.52c-.42,0-.52-.21-.52-.52v-13a6,6,0,0,0-2-4.59,6.38,6.38,0,0,0-4.58-2,6.2,6.2,0,0,0-4.59,2A6.3,6.3,0,0,0,7,35.21v13c0,.41-.21.52-.63.52H.52c-.42,0-.52-.21-.52-.52v-13a13.75,13.75,0,0,1,3.65-9.59,11.58,11.58,0,0,1,9-3.95c4.59,0,8.13,2.08,10.73,6.25a.56.56,0,0,0,.42.2c.21,0,.42,0,.42-.2q3.75-6.26,10.62-6.25a11.6,11.6,0,0,1,9,3.95,13.3,13.3,0,0,1,3.64,9.59v13Z"/><path class="cls-3" d="M71.87,69.06c0,.42-.21.52-.52.52H65.41a13.43,13.43,0,0,1-9.68-3.75,12.55,12.55,0,0,1,2.29-20,.55.55,0,0,0,.21-.42c0-.2-.11-.41-.21-.41-4.17-2.61-6.25-6.15-6.25-10.83a12,12,0,0,1,4-9.07,13.43,13.43,0,0,1,9.68-3.75h5.94c.42,0,.52.21.52.63v6c0,.42-.21.62-.52.62H65.41a5.87,5.87,0,0,0-4.58,2,6.46,6.46,0,0,0-2,4.69,6.25,6.25,0,0,0,2,4.69,6,6,0,0,0,4.58,2h5.94c.42,0,.52.21.52.62v6c0,.42-.21.63-.52.63H65.41a5.83,5.83,0,0,0-4.58,2,6.61,6.61,0,0,0-2,4.68,6.08,6.08,0,0,0,2,4.69,6.29,6.29,0,0,0,4.58,1.88h5.94c.42,0,.52.21.52.62v5.94Z"/><path class="cls-3" d="M157.6,30.62a6.31,6.31,0,0,0-1.88,4.59v13c0,.41-.21.52-.62.52h-5.94c-.42,0-.52-.21-.52-.52v-13a13.3,13.3,0,0,1,3.64-9.59,11.84,11.84,0,0,1,17.71,0,13.31,13.31,0,0,1,3.65,9.59v13c0,.41-.21.52-.52.52h-5.94c-.42,0-.63-.21-.63-.52v-13a6.3,6.3,0,0,0-1.87-4.59c-2.29-2.29-4.79-2.29-7.08,0Z"/><path class="cls-3" d="M97.08,48.44c0,.41-.21.52-.52.52h-19c-.42,0-.52-.21-.52-.52V22c0-.42.21-.63.52-.63h5.83a.56.56,0,0,1,.63.63V41.35a.49.49,0,0,0,.52.52h12c.41,0,.52.21.52.63v5.94Z"/><g id="Black_logo" data-name="Black logo"><path class="cls-4" d="M148,94.93a4.52,4.52,0,0,0-4.6-4.73h-5.61v12.89H141V99.65h1.64l2.27,3.44h3.62L145.8,99A4.65,4.65,0,0,0,148,94.93Zm-5.29,2.13H141V92.81h1.71a2.13,2.13,0,0,1,0,4.25Z"/><path class="cls-4" d="M128.63,90.2l-5.33,12.89h3.25l.68-1.82h4.85l.68,1.82H136L130.68,90.2ZM128.09,99l1.56-4.2,1.56,4.2Z"/><path class="cls-4" d="M117.18,92.83a3.28,3.28,0,0,1,3,1.7l2.48-1.61A5.8,5.8,0,0,0,117.17,90a6.64,6.64,0,0,0,0,13.27,5.81,5.81,0,0,0,5.49-2.91l-2.36-1.55a3.48,3.48,0,0,1-3.15,1.73c-2,0-3.38-1.6-3.38-3.9S115.2,92.83,117.18,92.83Z"/><polygon class="cls-4" points="103.91 92.17 101.76 92.17 101.76 95.42 98.51 95.42 98.51 97.57 101.75 97.57 101.75 100.82 103.91 100.82 103.91 97.57 107.13 97.57 107.13 95.42 103.91 95.42 103.91 92.17"/><polygon class="cls-4" points="91.45 97.82 85.5 90.2 83.01 90.2 83.01 103.11 85.92 103.11 85.92 95.82 91.63 103.11 94.38 103.11 94.38 90.2 91.45 90.2 91.45 97.82"/><rect class="cls-4" x="75.91" y="90.2" width="3.21" height="12.89"/><polygon class="cls-4" points="73.38 90.2 69.41 90.2 65.31 95.78 65.31 90.2 62.1 90.2 62.1 103.11 65.31 103.11 65.31 99.72 66.53 98.29 69.71 103.11 73.56 103.11 68.69 95.74 73.38 90.2"/><path class="cls-4" d="M167,90.2h-2l-5.33,12.89h3.25l.68-1.82h4.86l.68,1.82h3.25ZM164.38,99l1.56-4.2,1.57,4.2Z"/><polygon class="cls-3" points="160.09 90.2 149.94 90.2 149.94 92.81 153.41 92.81 153.41 103.11 156.63 103.11 156.63 92.81 160.09 92.81 160.09 90.2"/></g><path class="cls-4" d="M1.33,103.06V90.17H5.57a5.47,5.47,0,0,1,2.48.5A3.32,3.32,0,0,1,9.5,92,4,4,0,0,1,10,93.93a4,4,0,0,1-.46,1.9,3.37,3.37,0,0,1-1.44,1.35,5.37,5.37,0,0,1-2.5.51H2.88v5.37Zm1.55-6.68H5.53a3.08,3.08,0,0,0,2.2-.65,2.83,2.83,0,0,0,0-3.61,3,3,0,0,0-2.2-.66H2.88Z"/><path class="cls-4" d="M14.52,103.28a4.23,4.23,0,0,1-1.9-.38,2.62,2.62,0,0,1-1.12-1,2.74,2.74,0,0,1-.37-1.4,2.47,2.47,0,0,1,1.07-2.16,5,5,0,0,1,2.91-.75h2.46v-.11A2.48,2.48,0,0,0,17,95.63,2.3,2.3,0,0,0,15.27,95a2.65,2.65,0,0,0-1.55.45,2,2,0,0,0-.82,1.31H11.31A2.94,2.94,0,0,1,12,95.11a3.72,3.72,0,0,1,1.45-1,4.75,4.75,0,0,1,1.84-.36,3.77,3.77,0,0,1,2.88,1,3.77,3.77,0,0,1,1,2.72v5.61H17.74l-.09-1.64a3.6,3.6,0,0,1-1.14,1.32A3.31,3.31,0,0,1,14.52,103.28Zm.24-1.3a2.53,2.53,0,0,0,1.51-.46,2.92,2.92,0,0,0,1-1.2,3.75,3.75,0,0,0,.33-1.55v0H15.23a3,3,0,0,0-1.92.47,1.5,1.5,0,0,0-.56,1.17,1.4,1.4,0,0,0,.52,1.15A2.28,2.28,0,0,0,14.76,102Z"/><path class="cls-4" d="M21.44,103.06V93.93h1.4L23,95.68a3.32,3.32,0,0,1,1.29-1.44,4,4,0,0,1,2.13-.53v1.62H26a3.8,3.8,0,0,0-1.49.28,2.33,2.33,0,0,0-1.09,1,3.7,3.7,0,0,0-.4,1.88v4.6Z"/><path class="cls-4" d="M31.73,103.06a3,3,0,0,1-2-.6,2.78,2.78,0,0,1-.72-2.2v-5H27.46V93.93H29l.21-2.19h1.34v2.19h2.69v1.31H30.59v5a1.53,1.53,0,0,0,.35,1.17,1.86,1.86,0,0,0,1.23.31h1v1.32Z"/><path class="cls-4" d="M44.29,103.28A4.62,4.62,0,0,1,42,102.7,4.29,4.29,0,0,1,40.34,101a5.12,5.12,0,0,1-.6-2.53A5.05,5.05,0,0,1,40.35,96,4.25,4.25,0,0,1,42,94.3a4.88,4.88,0,0,1,4.65,0A4.33,4.33,0,0,1,48.28,96a5.26,5.26,0,0,1,.59,2.54,5.12,5.12,0,0,1-.6,2.53,4.41,4.41,0,0,1-1.65,1.67A4.68,4.68,0,0,1,44.29,103.28Zm0-1.32a2.89,2.89,0,0,0,2.58-1.55,3.94,3.94,0,0,0,.42-1.91,4.13,4.13,0,0,0-.41-1.92A2.86,2.86,0,0,0,44.33,95a2.86,2.86,0,0,0-2.58,1.55,4,4,0,0,0-.43,1.92,3.94,3.94,0,0,0,.43,1.91,2.92,2.92,0,0,0,1.09,1.16A2.84,2.84,0,0,0,44.29,102Z"/><path class="cls-4" d="M51.53,103.06V95.24H50.14V93.93h1.39V92.35a2.53,2.53,0,0,1,.66-1.94,2.77,2.77,0,0,1,1.93-.6H55v1.32h-.68a1.39,1.39,0,0,0-1,.29,1.28,1.28,0,0,0-.3,1v1.55h2.25v1.31H53.07v7.82Z"/></svg>